<mxfile host="app.diagrams.net" agent="Mozilla/5.0 (Windows NT 10.0; Win64; x64) AppleWebKit/537.36 (KHTML, like Gecko) Chrome/137.0.0.0 Safari/537.36 Edg/137.0.0.0" version="27.1.6">
  <diagram name="第 1 页" id="LuicYNgvJQtKAL-mJr_d">
    <mxGraphModel dx="1418" dy="786" grid="1" gridSize="10" guides="1" tooltips="1" connect="1" arrows="1" fold="1" page="1" pageScale="1" pageWidth="827" pageHeight="1169" math="0" shadow="0">
      <root>
        <mxCell id="0" />
        <mxCell id="1" parent="0" />
        <mxCell id="_Layy67exYFf-OtDCOIP-1" value="&lt;b&gt;&lt;font style=&quot;font-size: 24px; color: rgb(255, 0, 0);&quot;&gt;Instance&lt;/font&gt;&lt;/b&gt;" style="rounded=0;whiteSpace=wrap;html=1;" parent="1" vertex="1">
          <mxGeometry x="53" y="212" width="120" height="60" as="geometry" />
        </mxCell>
        <mxCell id="_Layy67exYFf-OtDCOIP-2" value="&lt;b&gt;&lt;font style=&quot;font-size: 18px;&quot;&gt;&amp;nbsp; Validation Layer&lt;/font&gt;&lt;/b&gt;" style="rounded=0;whiteSpace=wrap;html=1;align=left;" parent="1" vertex="1">
          <mxGeometry x="33" y="22" width="430" height="60" as="geometry" />
        </mxCell>
        <mxCell id="_Layy67exYFf-OtDCOIP-3" value="&lt;font style=&quot;font-size: 16px;&quot;&gt;VK_LAYER_KHRONOS_validation&lt;/font&gt;" style="rounded=0;whiteSpace=wrap;html=1;" parent="1" vertex="1">
          <mxGeometry x="193" y="32" width="260" height="40" as="geometry" />
        </mxCell>
        <mxCell id="_Layy67exYFf-OtDCOIP-4" value="&lt;font style=&quot;font-size: 16px;&quot;&gt;配置&lt;/font&gt;" style="endArrow=classic;html=1;rounded=0;exitX=0.25;exitY=0;exitDx=0;exitDy=0;entryX=0.114;entryY=0.996;entryDx=0;entryDy=0;entryPerimeter=0;" parent="1" source="_Layy67exYFf-OtDCOIP-1" target="_Layy67exYFf-OtDCOIP-2" edge="1">
          <mxGeometry width="50" height="50" relative="1" as="geometry">
            <mxPoint x="243" y="412" as="sourcePoint" />
            <mxPoint x="113" y="162" as="targetPoint" />
            <Array as="points" />
          </mxGeometry>
        </mxCell>
        <mxCell id="_Layy67exYFf-OtDCOIP-10" value="&lt;font style=&quot;font-size: 16px;&quot;&gt;VK_EXT_debug_utils&lt;/font&gt;" style="rounded=1;whiteSpace=wrap;html=1;" parent="1" vertex="1">
          <mxGeometry x="583" y="32" width="170" height="40" as="geometry" />
        </mxCell>
        <mxCell id="_Layy67exYFf-OtDCOIP-11" value="&lt;font style=&quot;font-size: 16px;&quot;&gt;拓展名字&lt;/font&gt;" style="endArrow=none;html=1;rounded=0;entryX=0;entryY=0.5;entryDx=0;entryDy=0;exitX=1;exitY=0.5;exitDx=0;exitDy=0;" parent="1" source="_Layy67exYFf-OtDCOIP-2" target="_Layy67exYFf-OtDCOIP-10" edge="1">
          <mxGeometry width="50" height="50" relative="1" as="geometry">
            <mxPoint x="443" y="322" as="sourcePoint" />
            <mxPoint x="493" y="272" as="targetPoint" />
          </mxGeometry>
        </mxCell>
        <mxCell id="_Layy67exYFf-OtDCOIP-13" value="&lt;font style=&quot;font-size: 18px;&quot;&gt;&lt;b&gt;&amp;nbsp; Physical Devices&lt;/b&gt;&lt;/font&gt;" style="rounded=0;whiteSpace=wrap;html=1;align=left;" parent="1" vertex="1">
          <mxGeometry x="263" y="212" width="450" height="60" as="geometry" />
        </mxCell>
        <mxCell id="_Layy67exYFf-OtDCOIP-14" value="&lt;font style=&quot;font-size: 16px;&quot;&gt;枚举选择&lt;/font&gt;" style="endArrow=classic;html=1;rounded=0;exitX=1;exitY=0.5;exitDx=0;exitDy=0;entryX=0;entryY=0.5;entryDx=0;entryDy=0;" parent="1" source="_Layy67exYFf-OtDCOIP-1" target="_Layy67exYFf-OtDCOIP-13" edge="1">
          <mxGeometry width="50" height="50" relative="1" as="geometry">
            <mxPoint x="433" y="472" as="sourcePoint" />
            <mxPoint x="483" y="422" as="targetPoint" />
            <mxPoint as="offset" />
          </mxGeometry>
        </mxCell>
        <mxCell id="_Layy67exYFf-OtDCOIP-15" value="&lt;font style=&quot;font-size: 16px;&quot;&gt;P_Device1&lt;/font&gt;" style="rounded=0;whiteSpace=wrap;html=1;" parent="1" vertex="1">
          <mxGeometry x="433" y="222" width="90" height="40" as="geometry" />
        </mxCell>
        <mxCell id="_Layy67exYFf-OtDCOIP-16" value="&lt;font style=&quot;font-size: 16px;&quot;&gt;P_Device2&lt;/font&gt;" style="rounded=0;whiteSpace=wrap;html=1;" parent="1" vertex="1">
          <mxGeometry x="523" y="222" width="90" height="40" as="geometry" />
        </mxCell>
        <mxCell id="_Layy67exYFf-OtDCOIP-17" value="&lt;font style=&quot;font-size: 16px;&quot;&gt;P_Device3&lt;/font&gt;" style="rounded=0;whiteSpace=wrap;html=1;" parent="1" vertex="1">
          <mxGeometry x="613" y="222" width="90" height="40" as="geometry" />
        </mxCell>
        <mxCell id="_Layy67exYFf-OtDCOIP-18" value="&lt;font style=&quot;font-size: 18px; color: light-dark(rgb(0, 0, 255), rgb(237, 237, 237));&quot;&gt;&lt;b style=&quot;&quot;&gt;&amp;nbsp; Logical Devices&lt;/b&gt;&lt;/font&gt;" style="rounded=0;whiteSpace=wrap;html=1;align=left;" parent="1" vertex="1">
          <mxGeometry x="263" y="342" width="450" height="60" as="geometry" />
        </mxCell>
        <mxCell id="_Layy67exYFf-OtDCOIP-19" value="&lt;font style=&quot;font-size: 16px;&quot;&gt;L_Device1&lt;/font&gt;" style="rounded=0;whiteSpace=wrap;html=1;" parent="1" vertex="1">
          <mxGeometry x="433" y="352" width="90" height="40" as="geometry" />
        </mxCell>
        <mxCell id="_Layy67exYFf-OtDCOIP-20" value="&lt;font style=&quot;font-size: 16px;&quot;&gt;L_Device2&lt;/font&gt;" style="rounded=0;whiteSpace=wrap;html=1;" parent="1" vertex="1">
          <mxGeometry x="523" y="352" width="90" height="40" as="geometry" />
        </mxCell>
        <mxCell id="_Layy67exYFf-OtDCOIP-21" value="&lt;font style=&quot;font-size: 16px;&quot;&gt;L_Device3&lt;/font&gt;" style="rounded=0;whiteSpace=wrap;html=1;" parent="1" vertex="1">
          <mxGeometry x="613" y="352" width="90" height="40" as="geometry" />
        </mxCell>
        <mxCell id="_Layy67exYFf-OtDCOIP-22" value="" style="endArrow=classic;html=1;rounded=0;exitX=0.5;exitY=1;exitDx=0;exitDy=0;entryX=0.5;entryY=0;entryDx=0;entryDy=0;" parent="1" source="_Layy67exYFf-OtDCOIP-15" target="_Layy67exYFf-OtDCOIP-19" edge="1">
          <mxGeometry width="50" height="50" relative="1" as="geometry">
            <mxPoint x="463" y="582" as="sourcePoint" />
            <mxPoint x="513" y="532" as="targetPoint" />
          </mxGeometry>
        </mxCell>
        <mxCell id="_Layy67exYFf-OtDCOIP-23" value="" style="endArrow=classic;html=1;rounded=0;exitX=0.5;exitY=1;exitDx=0;exitDy=0;entryX=0.5;entryY=0;entryDx=0;entryDy=0;" parent="1" source="_Layy67exYFf-OtDCOIP-16" target="_Layy67exYFf-OtDCOIP-20" edge="1">
          <mxGeometry width="50" height="50" relative="1" as="geometry">
            <mxPoint x="523" y="322" as="sourcePoint" />
            <mxPoint x="523" y="412" as="targetPoint" />
          </mxGeometry>
        </mxCell>
        <mxCell id="_Layy67exYFf-OtDCOIP-24" value="" style="endArrow=classic;html=1;rounded=0;exitX=0.5;exitY=1;exitDx=0;exitDy=0;entryX=0.5;entryY=0;entryDx=0;entryDy=0;" parent="1" source="_Layy67exYFf-OtDCOIP-17" target="_Layy67exYFf-OtDCOIP-21" edge="1">
          <mxGeometry width="50" height="50" relative="1" as="geometry">
            <mxPoint x="633" y="322" as="sourcePoint" />
            <mxPoint x="633" y="412" as="targetPoint" />
          </mxGeometry>
        </mxCell>
        <mxCell id="_Layy67exYFf-OtDCOIP-31" value="&lt;font style=&quot;font-size: 14px;&quot;&gt;并非一一对应，可以交错对应&lt;/font&gt;" style="endArrow=none;html=1;rounded=0;" parent="1" edge="1">
          <mxGeometry width="50" height="50" relative="1" as="geometry">
            <mxPoint x="443" y="302" as="sourcePoint" />
            <mxPoint x="693" y="302" as="targetPoint" />
          </mxGeometry>
        </mxCell>
        <mxCell id="_Layy67exYFf-OtDCOIP-32" value="&lt;font style=&quot;font-size: 16px;&quot;&gt;创建&lt;/font&gt;" style="endArrow=classic;html=1;rounded=0;exitX=0.133;exitY=1.017;exitDx=0;exitDy=0;exitPerimeter=0;" parent="1" source="_Layy67exYFf-OtDCOIP-13" edge="1">
          <mxGeometry width="50" height="50" relative="1" as="geometry">
            <mxPoint x="473" y="522" as="sourcePoint" />
            <mxPoint x="323" y="342" as="targetPoint" />
          </mxGeometry>
        </mxCell>
        <mxCell id="_Layy67exYFf-OtDCOIP-33" value="&lt;font style=&quot;font-size: 18px;&quot;&gt;&lt;b&gt;&amp;nbsp; Queue Families&lt;/b&gt;&lt;/font&gt;" style="rounded=0;whiteSpace=wrap;html=1;align=left;" parent="1" vertex="1">
          <mxGeometry x="853" y="212" width="430" height="60" as="geometry" />
        </mxCell>
        <mxCell id="_Layy67exYFf-OtDCOIP-34" value="&lt;font style=&quot;font-size: 16px;&quot;&gt;graphicsFamily&lt;/font&gt;" style="rounded=0;whiteSpace=wrap;html=1;" parent="1" vertex="1">
          <mxGeometry x="1033" y="222" width="120" height="40" as="geometry" />
        </mxCell>
        <mxCell id="_Layy67exYFf-OtDCOIP-35" value="&lt;font style=&quot;font-size: 16px;&quot;&gt;presentFamily&lt;/font&gt;" style="rounded=0;whiteSpace=wrap;html=1;" parent="1" vertex="1">
          <mxGeometry x="1153" y="222" width="120" height="40" as="geometry" />
        </mxCell>
        <mxCell id="_Layy67exYFf-OtDCOIP-36" value="" style="endArrow=classic;html=1;rounded=0;exitX=1;exitY=0.5;exitDx=0;exitDy=0;entryX=0;entryY=0.5;entryDx=0;entryDy=0;" parent="1" source="_Layy67exYFf-OtDCOIP-63" target="_Layy67exYFf-OtDCOIP-33" edge="1">
          <mxGeometry width="50" height="50" relative="1" as="geometry">
            <mxPoint x="733" y="562" as="sourcePoint" />
            <mxPoint x="783" y="512" as="targetPoint" />
          </mxGeometry>
        </mxCell>
        <mxCell id="_Layy67exYFf-OtDCOIP-39" value="&lt;font style=&quot;font-size: 18px;&quot;&gt;&lt;b&gt;&amp;nbsp; Queues&lt;/b&gt;&lt;/font&gt;" style="rounded=0;whiteSpace=wrap;html=1;align=left;" parent="1" vertex="1">
          <mxGeometry x="853" y="342" width="430" height="60" as="geometry" />
        </mxCell>
        <mxCell id="_Layy67exYFf-OtDCOIP-40" value="&lt;font style=&quot;font-size: 16px;&quot;&gt;创建&lt;/font&gt;" style="endArrow=classic;html=1;rounded=0;exitX=1;exitY=0.5;exitDx=0;exitDy=0;entryX=0;entryY=0.5;entryDx=0;entryDy=0;" parent="1" source="_Layy67exYFf-OtDCOIP-18" target="_Layy67exYFf-OtDCOIP-39" edge="1">
          <mxGeometry width="50" height="50" relative="1" as="geometry">
            <mxPoint x="923" y="562" as="sourcePoint" />
            <mxPoint x="973" y="512" as="targetPoint" />
          </mxGeometry>
        </mxCell>
        <mxCell id="_Layy67exYFf-OtDCOIP-41" value="&lt;font style=&quot;font-size: 16px;&quot;&gt;graphicsQueue&lt;/font&gt;" style="rounded=0;whiteSpace=wrap;html=1;" parent="1" vertex="1">
          <mxGeometry x="1033" y="352" width="120" height="40" as="geometry" />
        </mxCell>
        <mxCell id="_Layy67exYFf-OtDCOIP-42" value="&lt;font style=&quot;font-size: 16px;&quot;&gt;presentQueue&lt;/font&gt;" style="rounded=0;whiteSpace=wrap;html=1;" parent="1" vertex="1">
          <mxGeometry x="1153" y="352" width="120" height="40" as="geometry" />
        </mxCell>
        <mxCell id="_Layy67exYFf-OtDCOIP-45" value="&lt;font style=&quot;font-size: 16px;&quot;&gt;对应&lt;/font&gt;" style="endArrow=classic;html=1;rounded=0;exitX=0.5;exitY=1;exitDx=0;exitDy=0;entryX=0.5;entryY=0;entryDx=0;entryDy=0;" parent="1" source="_Layy67exYFf-OtDCOIP-34" target="_Layy67exYFf-OtDCOIP-41" edge="1">
          <mxGeometry width="50" height="50" relative="1" as="geometry">
            <mxPoint x="1003" y="542" as="sourcePoint" />
            <mxPoint x="1053" y="492" as="targetPoint" />
          </mxGeometry>
        </mxCell>
        <mxCell id="_Layy67exYFf-OtDCOIP-46" value="&lt;font style=&quot;font-size: 16px;&quot;&gt;对应&lt;/font&gt;" style="endArrow=classic;html=1;rounded=0;exitX=0.5;exitY=1;exitDx=0;exitDy=0;entryX=0.5;entryY=0;entryDx=0;entryDy=0;" parent="1" source="_Layy67exYFf-OtDCOIP-35" target="_Layy67exYFf-OtDCOIP-42" edge="1">
          <mxGeometry width="50" height="50" relative="1" as="geometry">
            <mxPoint x="1123" y="302" as="sourcePoint" />
            <mxPoint x="1123" y="392" as="targetPoint" />
          </mxGeometry>
        </mxCell>
        <mxCell id="_Layy67exYFf-OtDCOIP-47" value="&lt;font style=&quot;font-size: 18px;&quot;&gt;&lt;b&gt;&amp;nbsp; SwapChain&lt;/b&gt;&lt;/font&gt;" style="rounded=0;whiteSpace=wrap;html=1;align=left;" parent="1" vertex="1">
          <mxGeometry x="853" y="442" width="430" height="180" as="geometry" />
        </mxCell>
        <mxCell id="_Layy67exYFf-OtDCOIP-48" value="&lt;font style=&quot;font-size: 16px;&quot;&gt;Image1&lt;/font&gt;" style="rounded=0;whiteSpace=wrap;html=1;" parent="1" vertex="1">
          <mxGeometry x="1003" y="452" width="90" height="40" as="geometry" />
        </mxCell>
        <mxCell id="_Layy67exYFf-OtDCOIP-49" value="&lt;font style=&quot;font-size: 16px;&quot;&gt;Image2&lt;/font&gt;" style="rounded=0;whiteSpace=wrap;html=1;" parent="1" vertex="1">
          <mxGeometry x="1093" y="452" width="90" height="40" as="geometry" />
        </mxCell>
        <mxCell id="_Layy67exYFf-OtDCOIP-50" value="&lt;font style=&quot;font-size: 16px;&quot;&gt;Image3&lt;/font&gt;" style="rounded=0;whiteSpace=wrap;html=1;" parent="1" vertex="1">
          <mxGeometry x="1183" y="452" width="90" height="40" as="geometry" />
        </mxCell>
        <mxCell id="_Layy67exYFf-OtDCOIP-52" value="&lt;font style=&quot;font-size: 18px;&quot;&gt;&lt;b&gt;WindowSurface&lt;/b&gt;&lt;/font&gt;" style="rounded=0;whiteSpace=wrap;html=1;" parent="1" vertex="1">
          <mxGeometry x="563" y="102" width="150" height="60" as="geometry" />
        </mxCell>
        <mxCell id="_Layy67exYFf-OtDCOIP-53" value="&lt;font style=&quot;font-size: 16px;&quot;&gt;GLFW创建&lt;/font&gt;" style="endArrow=classic;html=1;rounded=0;entryX=0;entryY=0.5;entryDx=0;entryDy=0;exitX=0.5;exitY=0;exitDx=0;exitDy=0;" parent="1" source="_Layy67exYFf-OtDCOIP-1" target="_Layy67exYFf-OtDCOIP-52" edge="1">
          <mxGeometry width="50" height="50" relative="1" as="geometry">
            <mxPoint x="373" y="242" as="sourcePoint" />
            <mxPoint x="423" y="192" as="targetPoint" />
            <Array as="points">
              <mxPoint x="113" y="132" />
            </Array>
          </mxGeometry>
        </mxCell>
        <mxCell id="_Layy67exYFf-OtDCOIP-60" value="" style="curved=1;endArrow=classic;html=1;rounded=0;entryX=0;entryY=0.5;entryDx=0;entryDy=0;" parent="1" target="_Layy67exYFf-OtDCOIP-47" edge="1">
          <mxGeometry width="50" height="50" relative="1" as="geometry">
            <mxPoint x="783" y="242" as="sourcePoint" />
            <mxPoint x="773" y="402" as="targetPoint" />
            <Array as="points">
              <mxPoint x="703" y="452" />
            </Array>
          </mxGeometry>
        </mxCell>
        <mxCell id="_Layy67exYFf-OtDCOIP-66" value="" style="endArrow=classic;html=1;rounded=0;exitX=1;exitY=0.5;exitDx=0;exitDy=0;entryX=0.5;entryY=0;entryDx=0;entryDy=0;" parent="1" source="_Layy67exYFf-OtDCOIP-52" target="_Layy67exYFf-OtDCOIP-63" edge="1">
          <mxGeometry width="50" height="50" relative="1" as="geometry">
            <mxPoint x="743" y="362" as="sourcePoint" />
            <mxPoint x="793" y="312" as="targetPoint" />
            <Array as="points">
              <mxPoint x="783" y="132" />
            </Array>
          </mxGeometry>
        </mxCell>
        <mxCell id="_Layy67exYFf-OtDCOIP-68" value="&lt;font style=&quot;font-size: 16px;&quot;&gt;共同筛选&lt;/font&gt;" style="edgeLabel;html=1;align=center;verticalAlign=middle;resizable=0;points=[];" parent="_Layy67exYFf-OtDCOIP-66" vertex="1" connectable="0">
          <mxGeometry x="0.7212" relative="1" as="geometry">
            <mxPoint as="offset" />
          </mxGeometry>
        </mxCell>
        <mxCell id="_Layy67exYFf-OtDCOIP-67" value="" style="endArrow=classic;html=1;rounded=0;exitX=1;exitY=0.5;exitDx=0;exitDy=0;entryX=0;entryY=0.5;entryDx=0;entryDy=0;" parent="1" source="_Layy67exYFf-OtDCOIP-13" target="_Layy67exYFf-OtDCOIP-63" edge="1">
          <mxGeometry width="50" height="50" relative="1" as="geometry">
            <mxPoint x="713" y="242" as="sourcePoint" />
            <mxPoint x="853" y="242" as="targetPoint" />
          </mxGeometry>
        </mxCell>
        <mxCell id="_Layy67exYFf-OtDCOIP-63" value="&lt;b&gt;&lt;font style=&quot;font-size: 18px;&quot;&gt;&amp;amp;&lt;/font&gt;&lt;/b&gt;" style="ellipse;whiteSpace=wrap;html=1;aspect=fixed;" parent="1" vertex="1">
          <mxGeometry x="768" y="227" width="30" height="30" as="geometry" />
        </mxCell>
        <mxCell id="_Layy67exYFf-OtDCOIP-69" value="&lt;font style=&quot;font-size: 16px;&quot;&gt;创建&lt;/font&gt;" style="endArrow=classic;html=1;rounded=0;exitX=0.75;exitY=1;exitDx=0;exitDy=0;entryX=0;entryY=0.5;entryDx=0;entryDy=0;" parent="1" source="_Layy67exYFf-OtDCOIP-18" target="_Layy67exYFf-OtDCOIP-47" edge="1">
          <mxGeometry width="50" height="50" relative="1" as="geometry">
            <mxPoint x="703" y="452" as="sourcePoint" />
            <mxPoint x="753" y="402" as="targetPoint" />
            <Array as="points">
              <mxPoint x="601" y="532" />
            </Array>
          </mxGeometry>
        </mxCell>
        <mxCell id="_Layy67exYFf-OtDCOIP-71" value="&lt;font style=&quot;font-size: 16px;&quot;&gt;Image&lt;br&gt;View1&lt;/font&gt;" style="rounded=0;whiteSpace=wrap;html=1;" parent="1" vertex="1">
          <mxGeometry x="1003" y="562" width="90" height="40" as="geometry" />
        </mxCell>
        <mxCell id="_Layy67exYFf-OtDCOIP-72" value="&lt;font style=&quot;font-size: 16px;&quot;&gt;Image&lt;br&gt;View2&lt;/font&gt;" style="rounded=0;whiteSpace=wrap;html=1;" parent="1" vertex="1">
          <mxGeometry x="1093" y="562" width="90" height="40" as="geometry" />
        </mxCell>
        <mxCell id="_Layy67exYFf-OtDCOIP-73" value="&lt;font style=&quot;font-size: 16px;&quot;&gt;Image&lt;br&gt;View3&lt;/font&gt;" style="rounded=0;whiteSpace=wrap;html=1;" parent="1" vertex="1">
          <mxGeometry x="1183" y="562" width="90" height="40" as="geometry" />
        </mxCell>
        <mxCell id="_Layy67exYFf-OtDCOIP-74" value="&lt;font style=&quot;font-size: 16px;&quot;&gt;创建&lt;/font&gt;" style="endArrow=classic;html=1;rounded=0;exitX=0.75;exitY=1;exitDx=0;exitDy=0;entryX=0;entryY=0.5;entryDx=0;entryDy=0;" parent="1" source="_Layy67exYFf-OtDCOIP-18" target="_Layy67exYFf-OtDCOIP-71" edge="1">
          <mxGeometry width="50" height="50" relative="1" as="geometry">
            <mxPoint x="763" y="622" as="sourcePoint" />
            <mxPoint x="813" y="572" as="targetPoint" />
            <Array as="points">
              <mxPoint x="601" y="582" />
            </Array>
          </mxGeometry>
        </mxCell>
        <mxCell id="_Layy67exYFf-OtDCOIP-75" value="&lt;font style=&quot;font-size: 16px;&quot;&gt;对应&lt;/font&gt;" style="endArrow=classic;html=1;rounded=0;exitX=0.5;exitY=1;exitDx=0;exitDy=0;entryX=0.5;entryY=0;entryDx=0;entryDy=0;" parent="1" source="_Layy67exYFf-OtDCOIP-48" target="_Layy67exYFf-OtDCOIP-71" edge="1">
          <mxGeometry width="50" height="50" relative="1" as="geometry">
            <mxPoint x="1033" y="622" as="sourcePoint" />
            <mxPoint x="1083" y="572" as="targetPoint" />
          </mxGeometry>
        </mxCell>
        <mxCell id="_Layy67exYFf-OtDCOIP-76" value="&lt;font style=&quot;font-size: 16px;&quot;&gt;对应&lt;/font&gt;" style="endArrow=classic;html=1;rounded=0;exitX=0.5;exitY=1;exitDx=0;exitDy=0;entryX=0.5;entryY=0;entryDx=0;entryDy=0;" parent="1" source="_Layy67exYFf-OtDCOIP-49" target="_Layy67exYFf-OtDCOIP-72" edge="1">
          <mxGeometry width="50" height="50" relative="1" as="geometry">
            <mxPoint x="1073" y="502" as="sourcePoint" />
            <mxPoint x="1073" y="572" as="targetPoint" />
          </mxGeometry>
        </mxCell>
        <mxCell id="_Layy67exYFf-OtDCOIP-77" value="&lt;font style=&quot;font-size: 16px;&quot;&gt;对应&lt;/font&gt;" style="endArrow=classic;html=1;rounded=0;exitX=0.5;exitY=1;exitDx=0;exitDy=0;entryX=0.5;entryY=0;entryDx=0;entryDy=0;" parent="1" source="_Layy67exYFf-OtDCOIP-50" target="_Layy67exYFf-OtDCOIP-73" edge="1">
          <mxGeometry x="-0.4286" width="50" height="50" relative="1" as="geometry">
            <mxPoint x="1143" y="502" as="sourcePoint" />
            <mxPoint x="1143" y="572" as="targetPoint" />
            <mxPoint as="offset" />
          </mxGeometry>
        </mxCell>
        <mxCell id="_Layy67exYFf-OtDCOIP-78" value="&lt;b&gt;&lt;font style=&quot;font-size: 24px; color: rgb(0, 0, 0);&quot;&gt;Pipeline&lt;/font&gt;&lt;/b&gt;" style="rounded=0;whiteSpace=wrap;html=1;" parent="1" vertex="1">
          <mxGeometry x="53" y="682" width="120" height="60" as="geometry" />
        </mxCell>
        <mxCell id="_Layy67exYFf-OtDCOIP-79" value="&lt;font style=&quot;font-size: 16px;&quot;&gt;创建&lt;/font&gt;" style="endArrow=classic;html=1;rounded=0;exitX=0;exitY=0.5;exitDx=0;exitDy=0;entryX=0.5;entryY=0;entryDx=0;entryDy=0;" parent="1" source="_Layy67exYFf-OtDCOIP-18" target="_Layy67exYFf-OtDCOIP-78" edge="1">
          <mxGeometry width="50" height="50" relative="1" as="geometry">
            <mxPoint x="343" y="662" as="sourcePoint" />
            <mxPoint x="393" y="612" as="targetPoint" />
            <Array as="points">
              <mxPoint x="113" y="372" />
            </Array>
          </mxGeometry>
        </mxCell>
        <mxCell id="_Layy67exYFf-OtDCOIP-80" value="&lt;font style=&quot;font-size: 24px;&quot;&gt;&lt;b&gt;Shader&amp;nbsp;&lt;br&gt;Module&lt;/b&gt;&lt;/font&gt;" style="rounded=0;whiteSpace=wrap;html=1;" parent="1" vertex="1">
          <mxGeometry x="463" y="682" width="120" height="60" as="geometry" />
        </mxCell>
        <mxCell id="_Layy67exYFf-OtDCOIP-81" value="&lt;font style=&quot;font-size: 16px;&quot;&gt;PipelineShaderStageCreate&lt;/font&gt;" style="endArrow=classic;html=1;rounded=0;exitX=0;exitY=0.5;exitDx=0;exitDy=0;entryX=1;entryY=0.5;entryDx=0;entryDy=0;" parent="1" source="_Layy67exYFf-OtDCOIP-80" target="_Layy67exYFf-OtDCOIP-78" edge="1">
          <mxGeometry width="50" height="50" relative="1" as="geometry">
            <mxPoint x="343" y="652" as="sourcePoint" />
            <mxPoint x="393" y="602" as="targetPoint" />
          </mxGeometry>
        </mxCell>
        <mxCell id="_Layy67exYFf-OtDCOIP-82" value="&lt;font style=&quot;font-size: 20px;&quot;&gt;&lt;b style=&quot;&quot;&gt;&amp;nbsp; Fixed Function&lt;/b&gt;&lt;/font&gt;" style="rounded=0;whiteSpace=wrap;html=1;align=left;" parent="1" vertex="1">
          <mxGeometry x="173" y="972" width="570" height="120" as="geometry" />
        </mxCell>
        <mxCell id="_Layy67exYFf-OtDCOIP-83" value="&lt;b&gt;&lt;font style=&quot;font-size: 20px;&quot;&gt;&amp;nbsp; Render Pass&lt;/font&gt;&lt;/b&gt;" style="rounded=0;whiteSpace=wrap;html=1;align=left;" parent="1" vertex="1">
          <mxGeometry x="173" y="772" width="570" height="180" as="geometry" />
        </mxCell>
        <mxCell id="_Layy67exYFf-OtDCOIP-84" value="" style="endArrow=none;html=1;rounded=0;exitX=0.5;exitY=1;exitDx=0;exitDy=0;entryX=0;entryY=0.5;entryDx=0;entryDy=0;" parent="1" source="_Layy67exYFf-OtDCOIP-78" target="_Layy67exYFf-OtDCOIP-83" edge="1">
          <mxGeometry width="50" height="50" relative="1" as="geometry">
            <mxPoint x="333" y="742" as="sourcePoint" />
            <mxPoint x="113" y="1002" as="targetPoint" />
            <Array as="points">
              <mxPoint x="113" y="862" />
            </Array>
          </mxGeometry>
        </mxCell>
        <mxCell id="_Layy67exYFf-OtDCOIP-85" value="&lt;font style=&quot;font-size: 16px;&quot;&gt;包括&lt;/font&gt;" style="endArrow=none;html=1;rounded=0;exitX=0.5;exitY=1;exitDx=0;exitDy=0;entryX=0;entryY=0.5;entryDx=0;entryDy=0;" parent="1" source="_Layy67exYFf-OtDCOIP-78" target="_Layy67exYFf-OtDCOIP-82" edge="1">
          <mxGeometry x="-0.5556" width="50" height="50" relative="1" as="geometry">
            <mxPoint x="333" y="742" as="sourcePoint" />
            <mxPoint x="383" y="692" as="targetPoint" />
            <Array as="points">
              <mxPoint x="113" y="1032" />
            </Array>
            <mxPoint as="offset" />
          </mxGeometry>
        </mxCell>
        <mxCell id="_Layy67exYFf-OtDCOIP-86" value="&lt;font style=&quot;font-size: 16px;&quot;&gt;Vertex&lt;br&gt;Input&lt;/font&gt;" style="rounded=0;whiteSpace=wrap;html=1;" parent="1" vertex="1">
          <mxGeometry x="333" y="982" width="80" height="50" as="geometry" />
        </mxCell>
        <mxCell id="_Layy67exYFf-OtDCOIP-87" value="&lt;font style=&quot;font-size: 16px;&quot;&gt;Pipeline&lt;br&gt;Layout&lt;/font&gt;" style="rounded=0;whiteSpace=wrap;html=1;" parent="1" vertex="1">
          <mxGeometry x="333" y="1032" width="80" height="50" as="geometry" />
        </mxCell>
        <mxCell id="_Layy67exYFf-OtDCOIP-88" value="&lt;font style=&quot;font-size: 16px;&quot;&gt;Input&lt;br&gt;Assembly&lt;/font&gt;" style="rounded=0;whiteSpace=wrap;html=1;" parent="1" vertex="1">
          <mxGeometry x="413" y="982" width="80" height="50" as="geometry" />
        </mxCell>
        <mxCell id="_Layy67exYFf-OtDCOIP-89" value="&lt;font style=&quot;font-size: 16px;&quot;&gt;Viewports&amp;amp;Scissors&lt;br&gt;Or Dynamic State&lt;/font&gt;" style="rounded=0;whiteSpace=wrap;html=1;" parent="1" vertex="1">
          <mxGeometry x="413" y="1032" width="160" height="50" as="geometry" />
        </mxCell>
        <mxCell id="_Layy67exYFf-OtDCOIP-90" value="&lt;font style=&quot;font-size: 16px;&quot;&gt;Rasterizer&lt;/font&gt;" style="rounded=0;whiteSpace=wrap;html=1;" parent="1" vertex="1">
          <mxGeometry x="493" y="982" width="80" height="50" as="geometry" />
        </mxCell>
        <mxCell id="_Layy67exYFf-OtDCOIP-92" value="&lt;font style=&quot;font-size: 16px;&quot;&gt;Multi&lt;br&gt;sampling&lt;/font&gt;" style="rounded=0;whiteSpace=wrap;html=1;" parent="1" vertex="1">
          <mxGeometry x="573" y="982" width="80" height="50" as="geometry" />
        </mxCell>
        <mxCell id="_Layy67exYFf-OtDCOIP-93" value="&lt;font style=&quot;font-size: 16px;&quot;&gt;Depth and &lt;br&gt;Stencil testing&lt;/font&gt;" style="rounded=0;whiteSpace=wrap;html=1;" parent="1" vertex="1">
          <mxGeometry x="573" y="1032" width="160" height="50" as="geometry" />
        </mxCell>
        <mxCell id="_Layy67exYFf-OtDCOIP-94" value="&lt;font style=&quot;font-size: 16px;&quot;&gt;Color&lt;br&gt;Blending&lt;/font&gt;" style="rounded=0;whiteSpace=wrap;html=1;" parent="1" vertex="1">
          <mxGeometry x="653" y="982" width="80" height="50" as="geometry" />
        </mxCell>
        <mxCell id="_Layy67exYFf-OtDCOIP-96" value="&lt;font style=&quot;font-size: 16px;&quot;&gt;&amp;nbsp;SubPass&lt;/font&gt;" style="rounded=0;whiteSpace=wrap;html=1;align=left;" parent="1" vertex="1">
          <mxGeometry x="373" y="782" width="190" height="50" as="geometry" />
        </mxCell>
        <mxCell id="_Layy67exYFf-OtDCOIP-97" value="&lt;font style=&quot;font-size: 16px;&quot;&gt;SubPass&lt;/font&gt;" style="rounded=0;whiteSpace=wrap;html=1;" parent="1" vertex="1">
          <mxGeometry x="563" y="782" width="80" height="50" as="geometry" />
        </mxCell>
        <mxCell id="_Layy67exYFf-OtDCOIP-98" value="&lt;font style=&quot;font-size: 16px;&quot;&gt;SubPass&lt;/font&gt;" style="rounded=0;whiteSpace=wrap;html=1;" parent="1" vertex="1">
          <mxGeometry x="643" y="782" width="80" height="50" as="geometry" />
        </mxCell>
        <mxCell id="_Layy67exYFf-OtDCOIP-99" value="&lt;font style=&quot;font-size: 16px;&quot;&gt;AttachmentRef&lt;/font&gt;" style="rounded=0;whiteSpace=wrap;html=1;" parent="1" vertex="1">
          <mxGeometry x="447" y="787" width="110" height="40" as="geometry" />
        </mxCell>
        <mxCell id="_Layy67exYFf-OtDCOIP-100" value="&lt;font style=&quot;font-size: 16px;&quot;&gt;Attachment&lt;/font&gt;" style="rounded=0;whiteSpace=wrap;html=1;" parent="1" vertex="1">
          <mxGeometry x="368" y="902" width="90" height="40" as="geometry" />
        </mxCell>
        <mxCell id="_Layy67exYFf-OtDCOIP-101" value="&lt;font style=&quot;font-size: 16px;&quot;&gt;Attachment&lt;/font&gt;" style="rounded=0;whiteSpace=wrap;html=1;" parent="1" vertex="1">
          <mxGeometry x="457" y="902" width="90" height="40" as="geometry" />
        </mxCell>
        <mxCell id="_Layy67exYFf-OtDCOIP-102" value="&lt;font style=&quot;font-size: 16px;&quot;&gt;Attachment&lt;/font&gt;" style="rounded=0;whiteSpace=wrap;html=1;" parent="1" vertex="1">
          <mxGeometry x="547" y="902" width="90" height="40" as="geometry" />
        </mxCell>
        <mxCell id="_Layy67exYFf-OtDCOIP-103" value="&lt;font style=&quot;font-size: 16px;&quot;&gt;Attachment&lt;/font&gt;" style="rounded=0;whiteSpace=wrap;html=1;" parent="1" vertex="1">
          <mxGeometry x="637" y="902" width="90" height="40" as="geometry" />
        </mxCell>
        <mxCell id="_Layy67exYFf-OtDCOIP-104" value="&lt;font style=&quot;font-size: 16px;&quot;&gt;利用多个Ref，Subpass一对多Attachment&lt;br&gt;这里AttachmentRef index对应了layout(location=x)的x&lt;/font&gt;" style="endArrow=classic;html=1;rounded=0;exitX=0.5;exitY=1;exitDx=0;exitDy=0;" parent="1" source="_Layy67exYFf-OtDCOIP-99" target="_Layy67exYFf-OtDCOIP-101" edge="1">
          <mxGeometry width="50" height="50" relative="1" as="geometry">
            <mxPoint x="563" y="832" as="sourcePoint" />
            <mxPoint x="613" y="782" as="targetPoint" />
          </mxGeometry>
        </mxCell>
        <mxCell id="_Layy67exYFf-OtDCOIP-111" value="&lt;font style=&quot;font-size: 16px;&quot;&gt;&lt;b&gt;SubPass Dependency&lt;/b&gt;&lt;/font&gt;" style="rounded=0;whiteSpace=wrap;html=1;" parent="1" vertex="1">
          <mxGeometry x="818" y="827" width="170" height="50" as="geometry" />
        </mxCell>
        <mxCell id="_Layy67exYFf-OtDCOIP-112" value="&lt;font style=&quot;color: rgb(255, 0, 0); font-size: 16px;&quot;&gt;&lt;b&gt;调节同步问题&lt;/b&gt;&lt;/font&gt;" style="endArrow=classic;html=1;rounded=0;exitX=0;exitY=0.5;exitDx=0;exitDy=0;entryX=0.5;entryY=1;entryDx=0;entryDy=0;" parent="1" source="_Layy67exYFf-OtDCOIP-111" target="_Layy67exYFf-OtDCOIP-98" edge="1">
          <mxGeometry width="50" height="50" relative="1" as="geometry">
            <mxPoint x="353" y="862" as="sourcePoint" />
            <mxPoint x="403" y="812" as="targetPoint" />
            <Array as="points">
              <mxPoint x="683" y="852" />
            </Array>
          </mxGeometry>
        </mxCell>
        <mxCell id="_Layy67exYFf-OtDCOIP-113" value="&lt;span style=&quot;font-size: 16px;&quot;&gt;Framebuffer1&lt;/span&gt;" style="rounded=0;whiteSpace=wrap;html=1;" parent="1" vertex="1">
          <mxGeometry x="988" y="752" width="100" height="40" as="geometry" />
        </mxCell>
        <mxCell id="_Layy67exYFf-OtDCOIP-114" value="&lt;span style=&quot;font-size: 16px;&quot;&gt;Framebuffer2&lt;/span&gt;" style="rounded=0;whiteSpace=wrap;html=1;" parent="1" vertex="1">
          <mxGeometry x="1088" y="752" width="100" height="40" as="geometry" />
        </mxCell>
        <mxCell id="_Layy67exYFf-OtDCOIP-115" value="&lt;span style=&quot;font-size: 16px;&quot;&gt;Framebuffer3&lt;/span&gt;" style="rounded=0;whiteSpace=wrap;html=1;" parent="1" vertex="1">
          <mxGeometry x="1188" y="752" width="100" height="40" as="geometry" />
        </mxCell>
        <mxCell id="_Layy67exYFf-OtDCOIP-116" value="&lt;b&gt;&lt;font style=&quot;font-size: 20px;&quot;&gt;一对一绑定&lt;/font&gt;&lt;/b&gt;" style="endArrow=classic;html=1;rounded=0;exitX=1;exitY=0.5;exitDx=0;exitDy=0;entryX=0.5;entryY=1;entryDx=0;entryDy=0;" parent="1" source="_Layy67exYFf-OtDCOIP-98" target="_Layy67exYFf-OtDCOIP-114" edge="1">
          <mxGeometry width="50" height="50" relative="1" as="geometry">
            <mxPoint x="893" y="902" as="sourcePoint" />
            <mxPoint x="943" y="852" as="targetPoint" />
            <Array as="points">
              <mxPoint x="1138" y="807" />
            </Array>
          </mxGeometry>
        </mxCell>
        <mxCell id="_Layy67exYFf-OtDCOIP-117" value="" style="endArrow=classic;html=1;rounded=0;entryX=0.5;entryY=1;entryDx=0;entryDy=0;exitX=0.5;exitY=0;exitDx=0;exitDy=0;" parent="1" source="_Layy67exYFf-OtDCOIP-114" target="_Layy67exYFf-OtDCOIP-72" edge="1">
          <mxGeometry width="50" height="50" relative="1" as="geometry">
            <mxPoint x="1123" y="752" as="sourcePoint" />
            <mxPoint x="1173" y="702" as="targetPoint" />
          </mxGeometry>
        </mxCell>
        <mxCell id="_Layy67exYFf-OtDCOIP-121" value="&lt;b&gt;&lt;font style=&quot;font-size: 20px;&quot;&gt;可以一对多&lt;/font&gt;&lt;/b&gt;" style="edgeLabel;html=1;align=center;verticalAlign=middle;resizable=0;points=[];" parent="_Layy67exYFf-OtDCOIP-117" vertex="1" connectable="0">
          <mxGeometry x="-0.5011" y="2" relative="1" as="geometry">
            <mxPoint as="offset" />
          </mxGeometry>
        </mxCell>
        <mxCell id="_Layy67exYFf-OtDCOIP-120" value="" style="endArrow=classic;html=1;rounded=0;entryX=0.5;entryY=1;entryDx=0;entryDy=0;" parent="1" target="_Layy67exYFf-OtDCOIP-71" edge="1">
          <mxGeometry width="50" height="50" relative="1" as="geometry">
            <mxPoint x="1138" y="672" as="sourcePoint" />
            <mxPoint x="1053" y="602" as="targetPoint" />
            <Array as="points">
              <mxPoint x="1048" y="672" />
            </Array>
          </mxGeometry>
        </mxCell>
        <mxCell id="_Layy67exYFf-OtDCOIP-122" value="&lt;font style=&quot;font-size: 18px;&quot;&gt;&lt;b&gt;&amp;nbsp; CommandPool&lt;/b&gt;&lt;/font&gt;" style="rounded=0;whiteSpace=wrap;html=1;align=left;" parent="1" vertex="1">
          <mxGeometry x="853" y="1002" width="440" height="60" as="geometry" />
        </mxCell>
        <mxCell id="_Layy67exYFf-OtDCOIP-123" value="" style="curved=1;endArrow=classic;html=1;rounded=0;entryX=0;entryY=0;entryDx=0;entryDy=0;exitX=0;exitY=1;exitDx=0;exitDy=0;" parent="1" source="_Layy67exYFf-OtDCOIP-63" target="_Layy67exYFf-OtDCOIP-122" edge="1">
          <mxGeometry width="50" height="50" relative="1" as="geometry">
            <mxPoint x="783" y="262" as="sourcePoint" />
            <mxPoint x="893" y="622" as="targetPoint" />
            <Array as="points">
              <mxPoint x="723" y="342" />
              <mxPoint x="733" y="662" />
              <mxPoint x="803" y="872" />
            </Array>
          </mxGeometry>
        </mxCell>
        <mxCell id="MFIycMZdATQeFkzderdp-1" value="&lt;font style=&quot;font-size: 14px;&quot;&gt;蕴含了QueueFamilies&lt;br&gt;与CommandPool的对应&lt;br&gt;（queueFamilyIndex字段）&lt;/font&gt;" style="edgeLabel;html=1;align=center;verticalAlign=middle;resizable=0;points=[];" vertex="1" connectable="0" parent="_Layy67exYFf-OtDCOIP-123">
          <mxGeometry x="0.7718" y="-1" relative="1" as="geometry">
            <mxPoint x="10" y="33" as="offset" />
          </mxGeometry>
        </mxCell>
        <mxCell id="_Layy67exYFf-OtDCOIP-126" value="&lt;div style=&quot;&quot;&gt;&lt;b style=&quot;color: light-dark(rgb(0, 0, 255), rgb(237, 237, 237)); font-size: 18px; background-color: transparent;&quot;&gt;Logical Devices&lt;/b&gt;&lt;/div&gt;" style="rounded=0;whiteSpace=wrap;html=1;align=center;" parent="1" vertex="1">
          <mxGeometry x="923" y="902" width="80" height="60" as="geometry" />
        </mxCell>
        <mxCell id="_Layy67exYFf-OtDCOIP-127" value="&lt;font style=&quot;font-size: 16px;&quot;&gt;创建&lt;/font&gt;" style="endArrow=classic;html=1;rounded=0;exitX=0.5;exitY=1;exitDx=0;exitDy=0;entryX=0.25;entryY=0;entryDx=0;entryDy=0;" parent="1" source="_Layy67exYFf-OtDCOIP-126" target="_Layy67exYFf-OtDCOIP-122" edge="1">
          <mxGeometry width="50" height="50" relative="1" as="geometry">
            <mxPoint x="853" y="702" as="sourcePoint" />
            <mxPoint x="903" y="652" as="targetPoint" />
          </mxGeometry>
        </mxCell>
        <mxCell id="_Layy67exYFf-OtDCOIP-129" value="&lt;span style=&quot;font-size: 16px;&quot;&gt;command&lt;br&gt;buffer1&lt;/span&gt;" style="rounded=0;whiteSpace=wrap;html=1;" parent="1" vertex="1">
          <mxGeometry x="1003" y="1012" width="90" height="40" as="geometry" />
        </mxCell>
        <mxCell id="_Layy67exYFf-OtDCOIP-130" value="&lt;span style=&quot;font-size: 16px;&quot;&gt;command&lt;/span&gt;&lt;br style=&quot;font-size: 16px;&quot;&gt;&lt;span style=&quot;font-size: 16px;&quot;&gt;buffer2&lt;/span&gt;" style="rounded=0;whiteSpace=wrap;html=1;" parent="1" vertex="1">
          <mxGeometry x="1093" y="1012" width="90" height="40" as="geometry" />
        </mxCell>
        <mxCell id="_Layy67exYFf-OtDCOIP-131" value="&lt;span style=&quot;font-size: 16px;&quot;&gt;command&lt;/span&gt;&lt;br style=&quot;font-size: 16px;&quot;&gt;&lt;span style=&quot;font-size: 16px;&quot;&gt;buffer3&lt;/span&gt;" style="rounded=0;whiteSpace=wrap;html=1;" parent="1" vertex="1">
          <mxGeometry x="1183" y="1012" width="90" height="40" as="geometry" />
        </mxCell>
        <mxCell id="_Layy67exYFf-OtDCOIP-132" value="&lt;font style=&quot;font-size: 16px;&quot;&gt;创建&lt;/font&gt;" style="endArrow=classic;html=1;rounded=0;exitX=0.5;exitY=1;exitDx=0;exitDy=0;entryX=0.5;entryY=0;entryDx=0;entryDy=0;" parent="1" source="_Layy67exYFf-OtDCOIP-126" target="_Layy67exYFf-OtDCOIP-129" edge="1">
          <mxGeometry width="50" height="50" relative="1" as="geometry">
            <mxPoint x="823" y="852" as="sourcePoint" />
            <mxPoint x="873" y="802" as="targetPoint" />
            <Array as="points">
              <mxPoint x="1048" y="962" />
            </Array>
          </mxGeometry>
        </mxCell>
        <mxCell id="_Layy67exYFf-OtDCOIP-133" value="&lt;font style=&quot;font-size: 24px;&quot;&gt;&lt;b style=&quot;&quot;&gt;RecordCommandBuffer&lt;/b&gt;&lt;/font&gt;&lt;div&gt;&lt;font style=&quot;font-size: 20px;&quot;&gt;&lt;b&gt;&lt;br&gt;&lt;/b&gt;&lt;/font&gt;&lt;/div&gt;&lt;div&gt;&lt;font style=&quot;font-size: 20px;&quot;&gt;&lt;b&gt;&lt;br&gt;&lt;/b&gt;&lt;/font&gt;&lt;/div&gt;&lt;div&gt;&lt;font style=&quot;font-size: 20px;&quot;&gt;&lt;b&gt;&lt;br&gt;&lt;/b&gt;&lt;/font&gt;&lt;/div&gt;&lt;div&gt;&lt;font style=&quot;font-size: 20px;&quot;&gt;&lt;b&gt;&lt;br&gt;&lt;/b&gt;&lt;/font&gt;&lt;/div&gt;&lt;div&gt;&lt;font style=&quot;font-size: 20px;&quot;&gt;&lt;b&gt;&lt;br&gt;&lt;/b&gt;&lt;/font&gt;&lt;/div&gt;&lt;div&gt;&lt;font style=&quot;font-size: 20px;&quot;&gt;&lt;b&gt;&lt;br&gt;&lt;/b&gt;&lt;/font&gt;&lt;/div&gt;&lt;div&gt;&lt;font style=&quot;font-size: 20px;&quot;&gt;&lt;b&gt;&lt;br&gt;&lt;/b&gt;&lt;/font&gt;&lt;/div&gt;&lt;div&gt;&lt;font style=&quot;font-size: 20px;&quot;&gt;&lt;b&gt;&lt;br&gt;&lt;/b&gt;&lt;/font&gt;&lt;/div&gt;&lt;div&gt;&lt;font style=&quot;font-size: 20px;&quot;&gt;&lt;b&gt;&lt;br&gt;&lt;/b&gt;&lt;/font&gt;&lt;/div&gt;&lt;div&gt;&lt;font style=&quot;font-size: 20px;&quot;&gt;&lt;b&gt;&lt;br&gt;&lt;/b&gt;&lt;/font&gt;&lt;/div&gt;&lt;div&gt;&lt;font style=&quot;font-size: 20px;&quot;&gt;&lt;b&gt;&lt;br&gt;&lt;/b&gt;&lt;/font&gt;&lt;/div&gt;&lt;div&gt;&lt;font style=&quot;font-size: 20px;&quot;&gt;&lt;b&gt;&lt;br&gt;&lt;/b&gt;&lt;/font&gt;&lt;/div&gt;&lt;div&gt;&lt;font style=&quot;font-size: 20px;&quot;&gt;&lt;b&gt;&lt;br&gt;&lt;/b&gt;&lt;/font&gt;&lt;/div&gt;&lt;div&gt;&lt;font style=&quot;font-size: 20px;&quot;&gt;&lt;b&gt;&lt;br&gt;&lt;/b&gt;&lt;/font&gt;&lt;/div&gt;&lt;div&gt;&lt;font style=&quot;font-size: 20px;&quot;&gt;&lt;b&gt;&lt;br&gt;&lt;/b&gt;&lt;/font&gt;&lt;/div&gt;&lt;div&gt;&lt;font style=&quot;font-size: 20px;&quot;&gt;&lt;b&gt;&lt;br&gt;&lt;/b&gt;&lt;/font&gt;&lt;/div&gt;&lt;div&gt;&lt;font style=&quot;font-size: 20px;&quot;&gt;&lt;b&gt;&lt;br&gt;&lt;/b&gt;&lt;/font&gt;&lt;/div&gt;" style="rounded=0;whiteSpace=wrap;html=1;" parent="1" vertex="1">
          <mxGeometry x="1323" y="452" width="280" height="450" as="geometry" />
        </mxCell>
        <mxCell id="_Layy67exYFf-OtDCOIP-134" value="&lt;font style=&quot;font-size: 18px;&quot;&gt;被使用&lt;/font&gt;" style="endArrow=classic;html=1;rounded=0;exitX=1;exitY=0.5;exitDx=0;exitDy=0;entryX=0.5;entryY=1;entryDx=0;entryDy=0;" parent="1" source="_Layy67exYFf-OtDCOIP-131" target="_Layy67exYFf-OtDCOIP-133" edge="1">
          <mxGeometry width="50" height="50" relative="1" as="geometry">
            <mxPoint x="1133" y="732" as="sourcePoint" />
            <mxPoint x="1183" y="682" as="targetPoint" />
            <Array as="points">
              <mxPoint x="1463" y="1032" />
            </Array>
          </mxGeometry>
        </mxCell>
        <mxCell id="_Layy67exYFf-OtDCOIP-137" value="&lt;font style=&quot;font-size: 18px;&quot;&gt;执&lt;br&gt;行&lt;br&gt;顺&lt;br&gt;序&lt;/font&gt;" style="endArrow=classic;html=1;rounded=0;" parent="1" edge="1">
          <mxGeometry width="50" height="50" relative="1" as="geometry">
            <mxPoint x="1633" y="452" as="sourcePoint" />
            <mxPoint x="1633" y="902" as="targetPoint" />
          </mxGeometry>
        </mxCell>
        <mxCell id="_Layy67exYFf-OtDCOIP-138" value="&lt;font style=&quot;font-size: 18px;&quot;&gt;vkBeginCommandBuffer&lt;/font&gt;" style="rounded=0;whiteSpace=wrap;html=1;" parent="1" vertex="1">
          <mxGeometry x="1333" y="492" width="260" height="40" as="geometry" />
        </mxCell>
        <mxCell id="_Layy67exYFf-OtDCOIP-139" value="&lt;font style=&quot;font-size: 18px;&quot;&gt;vkCmdBeginRenderPass&lt;/font&gt;" style="rounded=0;whiteSpace=wrap;html=1;" parent="1" vertex="1">
          <mxGeometry x="1333" y="542" width="260" height="40" as="geometry" />
        </mxCell>
        <mxCell id="_Layy67exYFf-OtDCOIP-140" value="&lt;font style=&quot;font-size: 16px;&quot;&gt;引用&lt;/font&gt;" style="endArrow=classic;html=1;rounded=0;exitX=1;exitY=0.5;exitDx=0;exitDy=0;entryX=0;entryY=0.5;entryDx=0;entryDy=0;" parent="1" source="_Layy67exYFf-OtDCOIP-115" target="_Layy67exYFf-OtDCOIP-139" edge="1">
          <mxGeometry width="50" height="50" relative="1" as="geometry">
            <mxPoint x="973" y="752" as="sourcePoint" />
            <mxPoint x="1023" y="702" as="targetPoint" />
            <Array as="points">
              <mxPoint x="1293" y="562" />
            </Array>
          </mxGeometry>
        </mxCell>
        <mxCell id="_Layy67exYFf-OtDCOIP-141" value="&lt;font style=&quot;font-size: 16px;&quot;&gt;引用&lt;/font&gt;" style="curved=1;endArrow=classic;html=1;rounded=0;exitX=1;exitY=0;exitDx=0;exitDy=0;entryX=0;entryY=1;entryDx=0;entryDy=0;" parent="1" source="_Layy67exYFf-OtDCOIP-83" target="_Layy67exYFf-OtDCOIP-139" edge="1">
          <mxGeometry x="-0.6434" y="-1" width="50" height="50" relative="1" as="geometry">
            <mxPoint x="973" y="752" as="sourcePoint" />
            <mxPoint x="1023" y="702" as="targetPoint" />
            <Array as="points">
              <mxPoint x="1013" y="732" />
              <mxPoint x="1303" y="742" />
            </Array>
            <mxPoint as="offset" />
          </mxGeometry>
        </mxCell>
        <mxCell id="_Layy67exYFf-OtDCOIP-142" value="&lt;font style=&quot;font-size: 18px;&quot;&gt;vkCmdBindPipeline&lt;/font&gt;" style="rounded=0;whiteSpace=wrap;html=1;" parent="1" vertex="1">
          <mxGeometry x="1333" y="592" width="260" height="40" as="geometry" />
        </mxCell>
        <mxCell id="_Layy67exYFf-OtDCOIP-143" value="&lt;font style=&quot;font-size: 20px;&quot;&gt;引用&lt;/font&gt;" style="endArrow=classic;html=1;rounded=0;exitX=0;exitY=0.5;exitDx=0;exitDy=0;entryX=1;entryY=0.5;entryDx=0;entryDy=0;" parent="1" source="_Layy67exYFf-OtDCOIP-78" target="_Layy67exYFf-OtDCOIP-142" edge="1">
          <mxGeometry width="50" height="50" relative="1" as="geometry">
            <mxPoint x="993" y="752" as="sourcePoint" />
            <mxPoint x="1043" y="702" as="targetPoint" />
            <Array as="points">
              <mxPoint x="33" y="712" />
              <mxPoint x="33" y="1132" />
              <mxPoint x="1623" y="1132" />
              <mxPoint x="1623" y="612" />
            </Array>
          </mxGeometry>
        </mxCell>
        <mxCell id="_Layy67exYFf-OtDCOIP-144" value="&lt;span style=&quot;font-size: 18px;&quot;&gt;vkCmdSetViewport&lt;/span&gt;" style="rounded=0;whiteSpace=wrap;html=1;" parent="1" vertex="1">
          <mxGeometry x="1333" y="642" width="260" height="40" as="geometry" />
        </mxCell>
        <mxCell id="_Layy67exYFf-OtDCOIP-145" value="&lt;span style=&quot;font-size: 18px;&quot;&gt;vkCmdSetScissor&lt;/span&gt;" style="rounded=0;whiteSpace=wrap;html=1;" parent="1" vertex="1">
          <mxGeometry x="1333" y="692" width="260" height="40" as="geometry" />
        </mxCell>
        <mxCell id="_Layy67exYFf-OtDCOIP-146" value="&lt;span style=&quot;font-size: 18px;&quot;&gt;vkCmdDraw&lt;/span&gt;" style="rounded=0;whiteSpace=wrap;html=1;" parent="1" vertex="1">
          <mxGeometry x="1333" y="742" width="260" height="40" as="geometry" />
        </mxCell>
        <mxCell id="_Layy67exYFf-OtDCOIP-147" value="&lt;span style=&quot;font-size: 18px;&quot;&gt;vkCmdEndRenderPass&lt;/span&gt;" style="rounded=0;whiteSpace=wrap;html=1;" parent="1" vertex="1">
          <mxGeometry x="1333" y="792" width="260" height="40" as="geometry" />
        </mxCell>
        <mxCell id="_Layy67exYFf-OtDCOIP-148" value="&lt;span style=&quot;font-size: 18px;&quot;&gt;vkEndCommandBuffer&lt;/span&gt;" style="rounded=0;whiteSpace=wrap;html=1;" parent="1" vertex="1">
          <mxGeometry x="1333" y="842" width="260" height="40" as="geometry" />
        </mxCell>
        <mxCell id="_Layy67exYFf-OtDCOIP-149" value="" style="endArrow=classic;html=1;rounded=0;exitX=1;exitY=0.5;exitDx=0;exitDy=0;entryX=0;entryY=0.25;entryDx=0;entryDy=0;" parent="1" source="_Layy67exYFf-OtDCOIP-47" target="_Layy67exYFf-OtDCOIP-139" edge="1">
          <mxGeometry width="50" height="50" relative="1" as="geometry">
            <mxPoint x="1223" y="682" as="sourcePoint" />
            <mxPoint x="1273" y="632" as="targetPoint" />
            <Array as="points">
              <mxPoint x="1283" y="552" />
            </Array>
          </mxGeometry>
        </mxCell>
        <mxCell id="_Layy67exYFf-OtDCOIP-150" value="&lt;font style=&quot;font-size: 14px;&quot;&gt;由DrawFrame&lt;br&gt;获取ImageIndex&lt;/font&gt;" style="edgeLabel;html=1;align=center;verticalAlign=middle;resizable=0;points=[];" parent="_Layy67exYFf-OtDCOIP-149" vertex="1" connectable="0">
          <mxGeometry x="-0.1429" y="1" relative="1" as="geometry">
            <mxPoint y="-19" as="offset" />
          </mxGeometry>
        </mxCell>
        <mxCell id="_Layy67exYFf-OtDCOIP-151" value="&lt;font style=&quot;font-size: 24px;&quot;&gt;&lt;b&gt;DrawFrame&lt;/b&gt;&lt;/font&gt;&lt;div&gt;&lt;font style=&quot;font-size: 24px;&quot;&gt;&lt;b&gt;&lt;br&gt;&lt;/b&gt;&lt;/font&gt;&lt;/div&gt;&lt;div&gt;&lt;font style=&quot;font-size: 24px;&quot;&gt;&lt;b&gt;&lt;br&gt;&lt;/b&gt;&lt;/font&gt;&lt;/div&gt;&lt;div&gt;&lt;font style=&quot;font-size: 24px;&quot;&gt;&lt;b&gt;&lt;br&gt;&lt;/b&gt;&lt;/font&gt;&lt;/div&gt;&lt;div&gt;&lt;font style=&quot;font-size: 24px;&quot;&gt;&lt;b&gt;&lt;br&gt;&lt;/b&gt;&lt;/font&gt;&lt;/div&gt;&lt;div&gt;&lt;font style=&quot;font-size: 24px;&quot;&gt;&lt;b&gt;&lt;br&gt;&lt;/b&gt;&lt;/font&gt;&lt;/div&gt;&lt;div&gt;&lt;font style=&quot;font-size: 24px;&quot;&gt;&lt;b&gt;&lt;br&gt;&lt;/b&gt;&lt;/font&gt;&lt;/div&gt;&lt;div&gt;&lt;font style=&quot;font-size: 24px;&quot;&gt;&lt;b&gt;&lt;br&gt;&lt;/b&gt;&lt;/font&gt;&lt;/div&gt;&lt;div&gt;&lt;font style=&quot;font-size: 24px;&quot;&gt;&lt;b&gt;&lt;br&gt;&lt;/b&gt;&lt;/font&gt;&lt;/div&gt;&lt;div&gt;&lt;font style=&quot;font-size: 24px;&quot;&gt;&lt;b&gt;&lt;br&gt;&lt;/b&gt;&lt;/font&gt;&lt;/div&gt;&lt;div&gt;&lt;font style=&quot;font-size: 24px;&quot;&gt;&lt;b&gt;&lt;br&gt;&lt;/b&gt;&lt;/font&gt;&lt;/div&gt;&lt;div&gt;&lt;font style=&quot;font-size: 24px;&quot;&gt;&lt;b&gt;&lt;br&gt;&lt;/b&gt;&lt;/font&gt;&lt;/div&gt;" style="rounded=0;whiteSpace=wrap;html=1;align=center;" parent="1" vertex="1">
          <mxGeometry x="1323" y="22" width="280" height="370" as="geometry" />
        </mxCell>
        <mxCell id="_Layy67exYFf-OtDCOIP-152" value="&lt;font style=&quot;font-size: 18px;&quot;&gt;Semaphores/GPU&lt;/font&gt;" style="rounded=0;whiteSpace=wrap;html=1;" parent="1" vertex="1">
          <mxGeometry x="1123" y="42" width="160" height="40" as="geometry" />
        </mxCell>
        <mxCell id="_Layy67exYFf-OtDCOIP-153" value="&lt;font style=&quot;font-size: 18px;&quot;&gt;Fences/CPU&amp;amp;GPU&lt;/font&gt;" style="rounded=0;whiteSpace=wrap;html=1;" parent="1" vertex="1">
          <mxGeometry x="1123" y="112" width="160" height="40" as="geometry" />
        </mxCell>
        <mxCell id="_Layy67exYFf-OtDCOIP-154" value="&lt;font style=&quot;font-size: 16px;&quot;&gt;Use&lt;/font&gt;" style="endArrow=classic;html=1;rounded=0;exitX=1;exitY=0.5;exitDx=0;exitDy=0;entryX=0;entryY=0.103;entryDx=0;entryDy=0;entryPerimeter=0;" parent="1" source="_Layy67exYFf-OtDCOIP-152" target="_Layy67exYFf-OtDCOIP-151" edge="1">
          <mxGeometry width="50" height="50" relative="1" as="geometry">
            <mxPoint x="1283" y="402" as="sourcePoint" />
            <mxPoint x="1333" y="352" as="targetPoint" />
          </mxGeometry>
        </mxCell>
        <mxCell id="_Layy67exYFf-OtDCOIP-155" value="&lt;font style=&quot;font-size: 16px;&quot;&gt;Use&lt;/font&gt;" style="endArrow=classic;html=1;rounded=0;exitX=1;exitY=0.5;exitDx=0;exitDy=0;entryX=0;entryY=0.103;entryDx=0;entryDy=0;entryPerimeter=0;" parent="1" edge="1">
          <mxGeometry width="50" height="50" relative="1" as="geometry">
            <mxPoint x="1283" y="132.5" as="sourcePoint" />
            <mxPoint x="1323" y="131.5" as="targetPoint" />
          </mxGeometry>
        </mxCell>
        <mxCell id="_Layy67exYFf-OtDCOIP-156" value="&lt;font style=&quot;font-size: 18px;&quot;&gt;执&lt;br&gt;行&lt;br&gt;顺&lt;br&gt;序&lt;/font&gt;" style="endArrow=classic;html=1;rounded=0;" parent="1" edge="1">
          <mxGeometry width="50" height="50" relative="1" as="geometry">
            <mxPoint x="1623" y="21" as="sourcePoint" />
            <mxPoint x="1623" y="390" as="targetPoint" />
          </mxGeometry>
        </mxCell>
        <mxCell id="_Layy67exYFf-OtDCOIP-157" value="&lt;font style=&quot;font-size: 20px;&quot;&gt;被调用&lt;/font&gt;" style="endArrow=classic;html=1;rounded=0;entryX=0.5;entryY=1;entryDx=0;entryDy=0;exitX=0.5;exitY=0;exitDx=0;exitDy=0;" parent="1" source="_Layy67exYFf-OtDCOIP-133" target="_Layy67exYFf-OtDCOIP-151" edge="1">
          <mxGeometry width="50" height="50" relative="1" as="geometry">
            <mxPoint x="1393" y="702" as="sourcePoint" />
            <mxPoint x="1443" y="652" as="targetPoint" />
          </mxGeometry>
        </mxCell>
        <mxCell id="_Layy67exYFf-OtDCOIP-159" value="&lt;font style=&quot;font-size: 20px;&quot;&gt;vkWaitForFences&lt;/font&gt;" style="rounded=0;whiteSpace=wrap;html=1;" parent="1" vertex="1">
          <mxGeometry x="1333" y="62" width="260" height="40" as="geometry" />
        </mxCell>
        <mxCell id="_Layy67exYFf-OtDCOIP-160" value="&lt;font style=&quot;font-size: 20px;&quot;&gt;vkAcquireNextImageKHR&lt;br&gt;(recreateSwapChain if nec)&lt;/font&gt;" style="rounded=0;whiteSpace=wrap;html=1;" parent="1" vertex="1">
          <mxGeometry x="1333" y="110" width="260" height="50" as="geometry" />
        </mxCell>
        <mxCell id="_Layy67exYFf-OtDCOIP-161" value="&lt;font style=&quot;font-size: 20px;&quot;&gt;vkResetFences&lt;/font&gt;" style="rounded=0;whiteSpace=wrap;html=1;" parent="1" vertex="1">
          <mxGeometry x="1333" y="167" width="260" height="40" as="geometry" />
        </mxCell>
        <mxCell id="_Layy67exYFf-OtDCOIP-162" value="&lt;font style=&quot;font-size: 18px;&quot;&gt;Reset&amp;amp;Record&lt;b&gt;CommandBuffer&lt;/b&gt;&lt;/font&gt;" style="rounded=0;whiteSpace=wrap;html=1;" parent="1" vertex="1">
          <mxGeometry x="1333" y="214" width="260" height="40" as="geometry" />
        </mxCell>
        <mxCell id="_Layy67exYFf-OtDCOIP-163" value="&lt;font style=&quot;font-size: 20px;&quot;&gt;vkQueueSubmit&lt;/font&gt;" style="rounded=0;whiteSpace=wrap;html=1;" parent="1" vertex="1">
          <mxGeometry x="1333" y="262" width="260" height="40" as="geometry" />
        </mxCell>
        <mxCell id="_Layy67exYFf-OtDCOIP-164" value="&lt;font style=&quot;font-size: 20px;&quot;&gt;vkQueuePresentKHR&lt;/font&gt;&lt;br&gt;&lt;span style=&quot;font-size: 20px;&quot;&gt;(recreateSwapChain if nec)&lt;/span&gt;" style="rounded=0;whiteSpace=wrap;html=1;" parent="1" vertex="1">
          <mxGeometry x="1333" y="312" width="260" height="60" as="geometry" />
        </mxCell>
        <mxCell id="_Layy67exYFf-OtDCOIP-166" style="edgeStyle=orthogonalEdgeStyle;rounded=0;orthogonalLoop=1;jettySize=auto;html=1;exitX=0.5;exitY=1;exitDx=0;exitDy=0;" parent="1" source="_Layy67exYFf-OtDCOIP-133" target="_Layy67exYFf-OtDCOIP-133" edge="1">
          <mxGeometry relative="1" as="geometry" />
        </mxCell>
        <mxCell id="_Layy67exYFf-OtDCOIP-168" value="&lt;font style=&quot;font-size: 16px;&quot;&gt;引用&lt;/font&gt;" style="curved=1;endArrow=classic;html=1;rounded=0;exitX=0.75;exitY=0;exitDx=0;exitDy=0;entryX=0;entryY=0.5;entryDx=0;entryDy=0;" parent="1" source="_Layy67exYFf-OtDCOIP-41" target="_Layy67exYFf-OtDCOIP-163" edge="1">
          <mxGeometry x="-0.0406" y="-17" width="50" height="50" relative="1" as="geometry">
            <mxPoint x="1113" y="312" as="sourcePoint" />
            <mxPoint x="1163" y="262" as="targetPoint" />
            <Array as="points">
              <mxPoint x="1093" y="272" />
            </Array>
            <mxPoint as="offset" />
          </mxGeometry>
        </mxCell>
        <mxCell id="_Layy67exYFf-OtDCOIP-170" value="" style="endArrow=classic;html=1;rounded=0;exitX=0.996;exitY=0.122;exitDx=0;exitDy=0;entryX=0;entryY=0.75;entryDx=0;entryDy=0;exitPerimeter=0;" parent="1" source="_Layy67exYFf-OtDCOIP-42" target="_Layy67exYFf-OtDCOIP-164" edge="1">
          <mxGeometry width="50" height="50" relative="1" as="geometry">
            <mxPoint x="1113" y="312" as="sourcePoint" />
            <mxPoint x="1163" y="262" as="targetPoint" />
          </mxGeometry>
        </mxCell>
        <mxCell id="_Layy67exYFf-OtDCOIP-171" value="&lt;font style=&quot;font-size: 16px;&quot;&gt;引用&lt;/font&gt;" style="edgeLabel;html=1;align=center;verticalAlign=middle;resizable=0;points=[];" parent="_Layy67exYFf-OtDCOIP-170" vertex="1" connectable="0">
          <mxGeometry x="-0.1023" relative="1" as="geometry">
            <mxPoint as="offset" />
          </mxGeometry>
        </mxCell>
      </root>
    </mxGraphModel>
  </diagram>
</mxfile>
